<svg xmlns="http://www.w3.org/2000/svg" width="200" height="56"><g fill="#212121"><path d="M26.29 36.38c-1.02.46-2.17.83-3.44 1.11-1.27.28-2.73.42-4.36.42-2.29 0-4.47-.32-6.54-.96-2.06-.64-3.86-1.67-5.39-3.1-1.53-1.43-2.76-3.29-3.67-5.58-.92-2.29-1.38-5.1-1.38-8.42 0-3.01.46-5.66 1.38-7.96.9-2.29 2.22-4.21 3.93-5.77 1.71-1.55 3.75-2.73 6.12-3.52s5.01-1.19 7.92-1.19c2.86 0 5.47.37 7.84 1.11 2.37.74 4.22 1.54 5.55 2.41.97.66 1.73 1.42 2.29 2.26.56.84.84 1.9.84 3.18v28.84c0 2.65-.48 4.95-1.45 6.88-.97 1.94-2.31 3.53-4.02 4.78-1.71 1.25-3.71 2.18-6.01 2.79-2.3.61-4.77.92-7.42.92-2.75 0-5.14-.23-7.15-.69-2.02-.46-3.61-1.04-4.78-1.76-1.74-1.22-2.6-2.86-2.6-4.9 0-1.07.23-2.05.69-2.94.46-.89.97-1.54 1.53-1.95 1.43.81 3.07 1.52 4.93 2.1 1.86.59 3.84.88 5.93.88 2.86 0 5.11-.5 6.77-1.49 1.66-1 2.49-2.64 2.49-4.93v-2.52zm-5.74-7.27c1.22 0 2.28-.15 3.17-.46.89-.31 1.7-.71 2.41-1.22V11.74c-.61-.25-1.29-.51-2.03-.76-.74-.25-1.67-.38-2.79-.38-2.45 0-4.42.75-5.93 2.26-1.5 1.51-2.26 3.87-2.26 7.08 0 1.74.19 3.19.57 4.36.38 1.17.9 2.12 1.57 2.83.66.71 1.44 1.22 2.33 1.53.91.3 1.89.45 2.96.45zM57.73 39.28c-.51.15-1.22.29-2.14.42-.92.13-1.94.19-3.06.19-2.29 0-3.95-.37-4.97-1.11-1.02-.74-1.53-2.18-1.53-4.32V11.13c0-1.43.36-2.65 1.07-3.67.71-1.02 1.71-1.91 2.98-2.68 1.68-1.02 3.71-1.82 6.08-2.41 2.37-.59 4.86-.88 7.46-.88 5.31 0 7.96 1.79 7.96 5.35 0 .87-.13 1.66-.38 2.37-.26.71-.54 1.33-.84 1.84-1.17-.25-2.6-.38-4.28-.38-1.48 0-2.96.18-4.44.54-1.48.36-2.78.84-3.9 1.45v26.62zM90.86 1.41c2.65 0 5.06.27 7.23.8 2.17.54 4.02 1.37 5.55 2.49 1.53 1.12 2.72 2.55 3.56 4.28.84 1.73 1.26 3.78 1.26 6.12v17.3c0 1.33-.34 2.38-1.03 3.18a9.75 9.75 0 01-2.49 2.03c-1.58.97-3.52 1.71-5.81 2.22-2.29.51-4.9.77-7.8.77-5.25 0-9.44-1.01-12.55-3.02-3.11-2.01-4.67-5.09-4.67-9.22 0-3.52 1.04-6.2 3.14-8.03 2.09-1.83 5.3-2.98 9.64-3.44l10.18-1.07v-.84c0-1.63-.66-2.83-1.99-3.6-1.33-.76-3.24-1.15-5.74-1.15-1.94 0-3.84.23-5.7.69-1.86.46-3.53.99-5.01 1.61-.61-.41-1.14-1.03-1.57-1.87-.43-.84-.65-1.75-.65-2.72 0-2.24 1.17-3.85 3.52-4.82 1.48-.56 3.2-.98 5.16-1.26 1.95-.3 3.88-.45 5.77-.45zm.46 30.53c1.12 0 2.23-.12 3.33-.34 1.1-.23 1.92-.52 2.49-.88v-7.04l-6.27.54c-1.63.15-2.95.52-3.94 1.11-.99.59-1.49 1.47-1.49 2.64 0 1.23.46 2.2 1.38 2.91.9.7 2.4 1.06 4.5 1.06zM139.13 11.89c-1.07-.87-2.5-1.3-4.28-1.3-1.23 0-2.35.15-3.37.46-1.02.31-1.96.69-2.83 1.15v27.08c-.51.15-1.22.29-2.14.42-.92.13-1.94.19-3.06.19-2.29 0-3.95-.37-4.97-1.11s-1.53-2.18-1.53-4.32V10.82c0-1.32.28-2.4.84-3.21.56-.82 1.35-1.58 2.37-2.3 1.63-1.17 3.74-2.12 6.31-2.83 2.57-.71 5.42-1.07 8.53-1.07 5.56 0 9.86 1.22 12.89 3.67 3.04 2.45 4.55 5.94 4.55 10.48v23.72c-.56.15-1.3.29-2.22.42-.92.13-1.94.19-3.06.19-2.29 0-3.94-.37-4.94-1.11-.99-.74-1.49-2.18-1.49-4.32V15.87c.01-1.78-.53-3.11-1.6-3.98zM198.5 20.92c0 3.01-.46 5.73-1.38 8.15-.92 2.42-2.23 4.47-3.94 6.16-1.71 1.68-3.76 2.98-6.16 3.9-2.4.92-5.08 1.38-8.04 1.38s-5.65-.45-8.07-1.34c-2.42-.89-4.49-2.18-6.2-3.87-1.71-1.68-3.02-3.74-3.94-6.16-.92-2.42-1.38-5.16-1.38-8.22 0-2.96.47-5.65 1.42-8.07.94-2.42 2.27-4.47 3.98-6.16 1.71-1.68 3.77-2.98 6.2-3.9 2.42-.92 5.09-1.38 7.99-1.38 2.91 0 5.56.46 7.96 1.38 2.4.92 4.45 2.23 6.16 3.94s3.04 3.76 3.98 6.16c.95 2.4 1.42 5.07 1.42 8.03zM178.99 10.6c-2.4 0-4.26.89-5.58 2.68-1.33 1.79-1.99 4.34-1.99 7.65 0 3.42.65 6.01 1.95 7.77 1.3 1.76 3.18 2.64 5.62 2.64 2.45 0 4.32-.89 5.62-2.68 1.3-1.78 1.95-4.36 1.95-7.73 0-3.26-.66-5.8-1.99-7.61-1.32-1.82-3.18-2.72-5.58-2.72z"/></g></svg>